<svg id="Layer_1" enable-background="new 0 0 512 512" height="512" viewBox="0 0 512 512" width="512" xmlns="http://www.w3.org/2000/svg"><g><g><path d="m332.309 362.786c-.047 0-.093 0-.14-.001l-288.674-2.763c-8.028-.077-14.496-6.607-14.496-14.635v-45.34c0-59.601 23.364-115.789 65.787-158.213 42.424-42.424 98.611-65.787 158.213-65.787s115.79 23.364 158.214 65.787c42.423 42.423 65.787 98.611 65.787 158.212 0 1.553-.247 3.095-.732 4.57l-2.234 6.798c-2.245 6.832-9.118 11.018-16.219 9.882-7.099-1.137-12.321-7.262-12.321-14.452 0-27.17-22.104-49.274-49.274-49.274s-49.274 22.104-49.274 49.274v41.305c0 3.906-1.562 7.65-4.336 10.399-2.743 2.716-6.445 4.238-10.301 4.238z" fill="#ff405c"/></g><path d="m411.213 141.834c-42.424-42.424-98.613-65.788-158.214-65.788-21.615 0-42.776 3.088-63 9.029v276.349l142.17 1.361c.047 0 .094.001.14.001 3.855 0 7.558-1.522 10.299-4.237 2.775-2.749 4.336-6.493 4.336-10.399v-41.305c0-27.17 22.104-49.274 49.274-49.274s49.274 22.104 49.274 49.274c0 7.19 5.223 13.315 12.322 14.451 7.101 1.136 13.974-3.05 16.219-9.882l2.234-6.798c.485-1.475.732-3.017.732-4.57.001-59.601-23.363-115.789-65.786-158.212z" fill="#c1126b"/><g><path d="m466 343.483c-25.364 0-46-20.635-46-46s20.635-46 46-46 46 20.635 46 46c0 25.364-20.635 46-46 46z" fill="#e2dff4"/></g><g><path d="m338 435.954h-296.001c-23.158 0-41.999-18.841-41.999-42v-59.038c0-23.158 18.841-41.999 41.999-41.999h296.001c23.158 0 41.999 18.841 41.999 41.999v59.038c0 23.159-18.841 42-41.999 42z" fill="#f9f9f9"/></g><path d="m338 292.917h-148v143.037h148c23.158 0 41.999-18.841 41.999-42v-59.038c0-23.158-18.841-41.999-41.999-41.999z" fill="#e2dff4"/></g></svg>